<svg width="2800" height="2000" viewBox="0 0 2800 2000" fill="none" xmlns="http://www.w3.org/2000/svg">
<g clip-path="url(#clip0_5494_25660)">
<path d="M2800 0H0V2000H2800V0Z" fill="white"/>
<path d="M150.135 1607.67C150.135 1607.67 144.688 1672.7 248.441 1720.13C357.423 1769.95 892.632 1744.05 755.662 1802.71C658.248 1844.44 812.559 1877.31 1202.87 1888.69C1403.55 1894.53 2278.65 1909.26 2073.32 1794.46C1920.83 1709.2 2667.04 1831.22 2649.26 1607.67H150.135Z" fill="#FFEAD2"/>
<path d="M590.09 1606.38C590.09 1606.38 295.353 927.352 507.456 776.151C649.227 675.087 762.228 894.763 941.585 776.903C1101.26 671.974 962.536 387.35 1182.34 341.61C1466.38 282.503 1691.8 857.535 1926.78 776.151C2211.9 677.397 2495.53 877.869 2250.43 1607.67L590.09 1606.38Z" fill="#FFF5E9"/>
<path d="M359.479 1540.82C354.531 1527.23 349.636 1513.14 344.929 1498.95L356.529 1495.86C361.205 1509.95 366.068 1523.95 370.983 1537.46L359.479 1540.82ZM2434.61 1523.27L2422.6 1521.94C2424.6 1507.46 2426.49 1492.89 2428.23 1478.61L2440.26 1479.8C2438.51 1494.12 2436.61 1508.74 2434.61 1523.27ZM331.57 1456.78C327.334 1442.75 323.227 1428.47 319.36 1414.32L331.114 1411.74C334.957 1425.8 339.04 1440 343.251 1453.94L331.57 1456.78ZM2445.21 1436.25L2433.17 1435.23C2434.7 1420.7 2436.12 1406.08 2437.38 1391.79L2449.44 1392.64C2448.18 1406.99 2446.75 1421.66 2445.21 1436.25ZM308.302 1371.62C304.807 1357.34 301.481 1342.89 298.417 1328.69L310.299 1326.63C313.344 1340.74 316.649 1355.1 320.122 1369.3L308.302 1371.62ZM2452.92 1348.97L2440.84 1348.29C2441.86 1333.77 2442.76 1319.12 2443.51 1304.76L2455.6 1305.26C2454.85 1319.69 2453.95 1334.39 2452.92 1348.97ZM289.745 1285.54C287.054 1271.08 284.562 1256.5 282.34 1242.2L294.325 1240.7C296.533 1254.91 299.008 1269.39 301.681 1283.76L289.745 1285.54ZM2457.45 1261.51L2445.35 1261.19C2445.82 1246.61 2446.15 1231.94 2446.32 1217.61L2458.42 1217.72C2458.25 1232.12 2457.92 1246.85 2457.45 1261.51ZM276.267 1198.69C274.463 1184.08 272.893 1169.39 271.599 1155.03L283.661 1154.15C284.945 1168.41 286.503 1182.99 288.294 1197.49L276.267 1198.69ZM2446.37 1174.02C2446.22 1159.43 2445.91 1144.77 2445.45 1130.46L2457.54 1130.14C2458.01 1144.53 2458.32 1159.26 2458.47 1173.93L2446.37 1174.02ZM268.426 1111.25C267.623 1096.56 267.091 1081.81 266.844 1067.41L278.945 1067.24C279.19 1081.52 279.718 1096.15 280.514 1110.72L268.426 1111.25ZM2443.5 1086.92C2442.67 1072.35 2441.65 1057.72 2440.47 1043.45L2452.53 1042.65C2453.72 1057 2454.75 1071.71 2455.59 1086.37L2443.5 1086.92ZM279.059 1023.75L266.96 1023.52C267.297 1008.79 267.947 994.036 268.892 979.669L280.973 980.307C280.036 994.537 279.392 1009.15 279.059 1023.75ZM2436.27 1000.07C2434.65 985.491 2432.82 970.934 2430.83 956.799L2442.83 955.438C2444.84 969.668 2446.68 984.322 2448.31 998.991L2436.27 1000.07ZM284.81 936.983L272.769 935.899C274.413 921.224 276.417 906.556 278.726 892.302L290.702 893.862C288.417 907.958 286.435 922.466 284.81 936.983ZM2424.05 913.698C2421.53 899.215 2418.77 884.788 2415.84 870.815L2427.73 868.807C2430.69 882.891 2433.47 897.432 2436.01 912.026L2424.05 913.698ZM992.819 912.167C976.004 909.789 963.84 902.925 946.992 891.071L954.641 882.662C969.401 893.019 980.062 899.233 994.108 901.376L992.819 912.167ZM1034.8 886.347L1024.03 881.411C1029.57 871.683 1034.46 858.184 1038.58 841.288L1050.41 843.605C1046 861.661 1040.9 875.642 1034.8 886.347ZM911.475 859.946C901.834 850.319 891.532 839.239 879.979 826.073L889.489 819.362C900.879 832.341 911.016 843.245 920.479 852.696L911.475 859.946ZM298.784 851.046L286.904 848.978C290.039 834.493 293.586 820.05 297.447 806.049L309.195 808.655C305.383 822.478 301.88 836.74 298.784 851.046ZM2406.06 828.215C2402.47 813.882 2398.61 799.672 2394.57 785.981L2406.27 783.204C2410.34 797.028 2414.25 811.373 2417.86 825.841L2406.06 828.215ZM1058.55 799.93L1046.55 798.545C1048.4 785.591 1050.07 771.406 1051.64 755.178L1063.7 756.115C1062.11 772.494 1060.43 786.826 1058.55 799.93ZM850.34 791.109C840.503 779.196 830.3 766.603 821.508 755.735L831.304 749.363C840.078 760.21 850.261 772.777 860.065 784.652L850.34 791.109ZM1736.33 790.216C1726.9 790.216 1717.65 787.691 1708.84 782.712L1715.3 773.53C1728.53 781.024 1741.56 781.04 1755.62 775.064L1760.82 784.86C1752.51 788.414 1744.27 790.216 1736.33 790.216ZM322.068 766.834L310.495 763.66C315.304 749.56 320.578 735.536 326.175 721.978L337.524 725.745C332.008 739.108 326.808 752.932 322.068 766.834ZM1800.4 756.488L1791.5 749.126C1800.68 740.214 1810.52 729.222 1821.57 715.519L1831.38 721.882C1820.03 735.937 1809.9 747.257 1800.4 756.488ZM1674.43 749.026C1666.6 738.192 1658.84 725.432 1650.71 710.02L1661.64 705.378C1669.55 720.351 1677.05 732.697 1684.59 743.123L1674.43 749.026ZM2381.2 744.221C2376.32 730.16 2371.12 716.318 2365.73 703.08L2377.1 699.361C2382.55 712.762 2387.82 726.771 2392.75 740.999L2381.2 744.221ZM792.829 720.354C781.757 706.785 772.53 695.645 763.791 685.296L773.439 678.744C782.219 689.141 791.484 700.326 802.596 713.945L792.829 720.354ZM1067.34 712.289L1055.26 711.588C1056.18 698.873 1057.11 684.583 1058.11 667.899L1070.2 668.483C1069.19 685.206 1068.26 699.534 1067.34 712.289ZM355.663 685.574L344.591 681.192C351.234 667.699 358.314 654.45 365.836 641.494L376.567 646.511C369.165 659.259 362.201 672.296 355.663 685.574ZM1859.1 685.571L1848.99 679.608C1857.59 667.884 1866.47 655.461 1875.47 642.912L1885.65 648.778C1876.63 661.36 1867.74 673.793 1859.1 685.571ZM1631.23 669.522C1625.75 657.192 1620.08 643.741 1613.91 628.397L1625.29 624.715C1631.42 639.944 1637.04 653.285 1642.47 665.502L1631.23 669.522ZM2347.93 662.753C2341.43 649.162 2334.54 635.961 2327.48 623.514L2338.26 618.59C2345.45 631.246 2352.44 644.664 2359.05 658.471L2347.93 662.753ZM733.911 650.909C722.93 638.686 712.709 627.807 702.663 617.65L711.716 610.449C721.89 620.735 732.232 631.742 743.335 644.101L733.911 650.909ZM1072.71 624.706L1060.63 624.16C1061.44 609.662 1062.25 595.156 1063.12 580.395L1075.2 580.964C1074.34 595.717 1073.53 610.215 1072.71 624.706ZM1912.18 612.126L1902.08 606.142C1912.19 592.423 1921.23 580.554 1929.73 569.861L1939.58 576.156C1931.17 586.746 1922.21 598.512 1912.18 612.126ZM400.567 609.063L390.367 603.223C399.877 589.867 409.682 577.805 419.51 567.371L428.755 574.374C419.273 584.44 409.789 596.112 400.567 609.063ZM1597.75 586.985C1592.2 572.401 1586.76 557.808 1582.16 545.457L1593.64 542.023C1598.23 554.357 1603.67 568.926 1609.21 583.48L1597.75 586.985ZM669.39 586.225C657.021 575.426 644.859 565.886 633.243 557.87L640.623 549.269C652.61 557.54 665.129 567.358 677.832 578.448L669.39 586.225ZM2303.98 585.761C2295.31 573.072 2286.22 561.07 2276.96 550.091L2286.61 543.544C2296.1 554.805 2305.42 567.101 2314.3 580.09L2303.98 585.761ZM462.699 544.848L455.359 536.22C469.811 526.334 484.852 519.204 500.064 515.03L503.605 525.408C489.768 529.204 476.006 535.745 462.699 544.848ZM1968.77 541.529L1959.37 534.696C1970.72 522.138 1981.48 511.332 1992.25 501.662L2000.81 509.332C1990.34 518.734 1979.86 529.266 1968.77 541.529ZM1077.91 537.262L1065.83 536.616C1066.88 520.842 1067.92 506.517 1069.01 492.822L1081.09 493.596C1080 507.248 1078.96 521.531 1077.91 537.262ZM593.233 534.99C578.132 528.251 563.279 523.95 549.086 522.206L550.729 511.454C566.229 513.359 582.343 518.008 598.624 525.274L593.233 534.99ZM2245.83 517.447C2234.18 506.743 2222.11 497.295 2209.97 489.365L2217.1 480.593C2229.78 488.879 2242.36 498.728 2254.49 509.867L2245.83 517.447ZM1566.73 503.93C1560.71 487.783 1555.75 474.618 1551.11 462.497L1562.56 458.979C1567.2 471.126 1572.18 484.316 1578.2 500.489L1566.73 503.93ZM2037.03 481.63L2030.09 472.738C2044.97 463.401 2060.01 456.485 2074.77 452.185L2078.51 462.506C2064.89 466.474 2050.93 472.909 2037.03 481.63ZM2169.07 468.335C2154.08 462.666 2138.91 459.157 2123.98 457.906L2125.1 447.101C2141.27 448.456 2157.64 452.235 2173.77 458.336L2169.07 468.335ZM1084.96 450.028L1072.9 449.068C1074.41 433.842 1076.05 419.136 1077.78 405.361L1089.8 406.574C1088.09 420.265 1086.46 434.885 1084.96 450.028ZM1535.01 421.221C1529.16 406.584 1523.65 393.204 1518.17 380.318L1529.47 376.446C1534.99 389.403 1540.53 402.852 1546.4 417.561L1535.01 421.221ZM1095.97 363.301L1083.99 361.749C1086.44 346.555 1089.13 331.943 1091.99 318.319L1103.88 320.325C1101.05 333.799 1098.39 348.258 1095.97 363.301ZM1500.19 339.798C1493.68 325.772 1487.13 312.351 1480.7 299.911L1491.69 295.35C1498.18 307.92 1504.8 321.473 1511.36 335.632L1500.19 339.798ZM1114.15 277.858L1102.41 275.228C1106.63 260.074 1111.29 245.8 1116.24 232.802L1127.69 236.313C1122.85 249.022 1118.29 263 1114.15 277.858ZM1459.21 260.964C1451.25 247.521 1443.12 234.902 1435.05 223.456L1445.27 217.653C1453.51 229.331 1461.8 242.19 1469.9 255.874L1459.21 260.964ZM1145.87 196.553L1135.02 191.75C1142.96 177.312 1151.77 164.546 1161.21 153.806L1170.71 160.521C1161.8 170.668 1153.44 182.791 1145.87 196.553ZM1407.31 188.258C1396.74 176.371 1385.82 165.84 1374.87 156.96L1382.99 148.911C1394.43 158.184 1405.79 169.145 1416.77 181.491L1407.31 188.258ZM1204.48 132.393L1197.95 123.253C1212.29 115.025 1228.08 109.675 1244.9 107.352L1246.74 118.078C1231.6 120.168 1217.38 124.985 1204.48 132.393ZM1336.69 132.386C1322.59 125.571 1307.91 120.911 1293.05 118.538L1295.17 107.853C1311.3 110.43 1327.2 115.47 1342.43 122.833L1336.69 132.386Z" fill="#FED7AA"/>
<path d="M2518.6 1267.53C2418.18 1252.65 2427.27 1476.35 2284.12 1476.35C2153.24 1476.35 2083.21 976.549 1939.58 1078.2C1362.19 1486.87 1811.44 791.45 1423.2 777.857C1247.64 771.711 1130.66 958.9 1087.53 1290.33C1025 1589.95 879.978 1061.8 730.738 1110.91C635.889 1142.12 646.751 1476.35 515.873 1476.35C372.726 1476.35 382.156 1288.24 281.733 1303.13C173.611 1319.15 148.273 1610.81 148.273 1610.81H2651.72C2651.72 1610.81 2626.72 1283.56 2518.6 1267.53Z" fill="#FED7AA"/>
<path d="M2422.37 1502.32C2329.98 1495.97 2345.06 1553.39 2213.37 1553.39C2092.96 1553.39 2096.27 1424.69 2015.69 1397.34C1867.31 1346.97 1744.99 1601.9 1687.46 1473.96C1578.2 1134.47 1259.54 964.222 1112.53 1473.96C1055 1601.9 920.475 1373.61 784.292 1397.34C700.466 1411.95 707.026 1553.39 586.621 1553.39C454.929 1553.39 470.006 1495.97 377.618 1502.32C278.148 1509.17 248.438 1610.81 248.438 1610.81H2551.55C2551.55 1610.81 2521.84 1509.17 2422.37 1502.32Z" fill="#FFF6EC"/>
<path d="M764.764 962.001C696.838 885.281 643.913 806.27 603.12 733.448C613.758 739.694 662.074 742.328 662.894 731.961C663.667 720.318 605.15 715.971 597.887 724.011C595.155 719.043 592.476 714.106 589.857 709.203C600.299 714.779 651.807 710.189 651.171 699.277C650.141 687.656 591.682 692.362 585.725 701.417C582.458 695.207 579.282 689.057 576.194 682.968C587.156 688.048 637.08 683.357 636.391 672.687C635.248 661.252 578.964 665.677 571.746 674.113C568.703 668.004 565.726 661.947 562.86 655.98C572.371 661.706 627.17 648.286 624.659 637.079C621.857 625.665 563.684 640.008 560.073 650.115C557.331 644.336 554.655 638.615 552.077 632.986C562.819 637.376 614.377 624.434 611.99 613.568C609.031 602.499 554.506 615.762 548.543 625.186C545.493 618.414 542.559 611.762 539.744 605.239C550.697 609.382 601.604 596.517 599.225 585.737C596.267 574.775 542.706 587.714 536.194 596.955C534.06 591.918 532.014 586.986 530.02 582.119C540.955 585.286 590.95 563.499 586.717 553.034C581.998 542.823 532.202 564.064 526.786 574.161C523.994 567.214 521.4 560.645 518.837 553.936C530.216 556.381 578.687 535.07 574.527 524.782C569.924 514.786 521.817 535.06 515.428 544.945C513.506 539.821 511.648 534.773 509.854 529.804C520.53 532.237 567.31 498.657 560.68 489.158C553.978 480.313 510.812 510.891 507.034 521.92C504.863 515.788 502.79 509.789 500.81 503.927C511.645 505.986 557.893 472.749 551.323 463.271C544.71 454.515 502.228 484.46 497.99 495.481C495.907 489.171 493.937 483.037 492.073 477.088C504.112 475.631 544.119 445.908 538.018 437.187C532.606 429.124 495.279 453.848 488.201 464.494C486.439 458.652 484.787 453.016 483.24 447.601C494.62 446.053 532.21 407.415 524.395 399.367C517.586 392.318 484.775 423.423 479.752 435.128C478.399 430.18 477.145 425.457 475.98 420.961C486.824 421.371 524.998 377.089 516.233 369.411C508.476 362.718 476.629 397.957 473.191 409.942C471.495 403.081 470.046 396.903 468.822 391.464C479.946 390.234 516.257 347.872 507.752 340.248C500.7 333.705 470.456 366.122 465.944 378.131C464.933 373.215 464.229 369.503 463.79 367.094C469.871 357.224 465.349 304.174 454.229 304.788C449.055 305.197 446.046 320.531 447.509 339.037C448.756 360.896 455.319 364.305 457.76 380.457C450.11 370.095 412.978 347.09 408.026 355.17C401.429 364.884 450.82 398.463 460.813 394.516C461.959 399.57 463.292 405.231 464.823 411.442C455.855 402.584 412.431 386.634 408.853 395.973C404.705 406.776 457.985 428.195 467.838 423.36C469.212 428.658 470.713 434.277 472.345 440.187C462.562 432.189 418.166 420.179 415.45 429.751C412.365 440.746 465.649 457.093 475.731 452.196C477.294 457.627 478.961 463.273 480.735 469.114C470.498 461.865 424.452 453.625 422.506 463.537C420.455 474.71 474.428 486.09 484.26 480.528C485.959 485.937 487.747 491.499 489.623 497.2C479.156 490.813 430.318 488.054 429.452 498.507C428.857 509.874 484.066 514.173 492.998 507.312C494.753 512.5 496.578 517.79 498.481 523.186C488.141 517.515 436.35 522.093 436.982 533.044C438.131 544.454 494.173 540.069 501.516 531.695C503.537 537.303 505.633 543.008 507.814 548.813C497.926 542.75 444.925 547.274 445.542 558.387C446.614 569.947 504.335 565.335 510.726 556.483C513.133 562.795 515.566 568.963 518.169 575.465C507.729 569.887 456.216 574.478 456.852 585.39C457.987 596.843 514.475 592.391 521.579 583.896C523.447 588.47 525.373 593.116 527.364 597.84C515.931 594.315 466.625 607 469 617.55C471.928 628.323 523.889 615.938 531.279 607.029C533.72 612.707 536.23 618.46 538.85 624.329C527.823 620.277 477.152 633.115 479.529 643.862C482.487 654.831 536.111 641.871 542.587 632.617C545.285 638.558 548.082 644.591 550.963 650.702C540.692 645.774 487.808 658.898 490.232 669.918C493.142 681.151 549.307 667.385 554.248 657.639C556.931 663.248 559.708 668.935 562.547 674.671C551.399 671.456 501.517 689.866 505.059 700.414C509.175 710.979 560.908 692.419 566.467 682.55C569.554 688.688 572.755 694.908 576.023 701.172C566.078 696.342 512.721 715.665 516.445 726.561C520.506 737.527 575.961 717.349 579.072 707.005C582.538 713.571 586.122 720.209 589.79 726.895C579.057 723.852 529.546 750.101 534.691 760.327C540.268 770.352 590.018 744.098 593.419 733.498C634.779 807.92 688.768 888.973 758.412 967.632L764.764 962.001Z" fill="#3A72AA"/>
<path d="M787.311 905.83C713.313 882.705 648.136 852.229 593.236 821.017C602.569 820.902 634.891 803.712 631.369 796.678C627.317 788.835 587.717 808.904 586.157 816.951C582.445 814.802 578.779 812.652 575.165 810.5C584.11 810.028 615.673 786.911 610.995 780.093C605.783 772.969 569.761 798.879 569.444 807.073C564.9 804.329 560.437 801.588 556.056 798.851C565.144 797.854 595.642 775.292 591.023 768.65C585.811 761.692 551.088 786.568 549.712 794.855C545.352 792.089 541.055 789.329 536.865 786.586C545.264 786.575 575.508 756.453 569.498 750.176C563.219 743.88 531.152 775.919 532.765 783.878C528.729 781.207 524.758 778.548 520.887 775.911C529.562 774.553 557.892 746.008 552.097 739.904C545.852 733.893 515.725 763.805 515.548 772.242C510.924 769.049 506.422 765.887 502.048 762.764C510.762 761.163 538.702 732.923 532.945 726.871C526.743 720.928 497.112 750.255 496.509 758.787C493.157 756.359 489.903 753.966 486.709 751.593C495.029 749.368 518.89 715.705 512.056 710.582C505.005 705.815 481.062 739.046 481.502 747.703C476.979 744.294 472.725 741.061 468.448 737.71C476.774 734.84 499.828 702.086 493.111 697.051C486.222 692.377 462.994 724.319 462.72 733.22C459.469 730.65 456.302 728.111 453.194 725.593C461.059 722.985 478.218 682.954 470.211 679.394C462.413 676.287 446.417 712.961 448.278 721.585C444.477 718.465 440.786 715.392 437.214 712.372C445.036 709.464 461.988 669.857 454.027 666.288C446.32 663.203 430.518 699.207 432.081 708.004C428.264 704.731 424.591 701.531 421.058 698.407C453.143 655.861 430.148 629.825 413.624 691.763C410.2 688.67 406.923 685.665 403.805 682.764C410.569 677.31 419.804 637.587 411.595 635.431C404.43 633.529 395.344 666.498 396.666 676.045C393.857 673.371 391.196 670.803 388.685 668.348C395.867 664.369 403.272 620.766 394.593 619.221C386.953 617.92 380.107 653.193 382.567 662.301C378.789 658.524 375.429 655.086 372.512 652.045C379.235 646.897 386.186 605.261 377.696 603.65C370.569 602.171 363.659 634.994 365.434 644.536C362.844 641.735 360.947 639.617 359.722 638.229C359.8 629.458 336.125 596.868 329.163 601.615C325.972 603.904 330.02 615.011 338.204 626.425C347.56 640.095 353.145 639.736 361.043 649.243C352.036 645.524 318.99 645.145 318.941 652.315C318.467 661.186 363.594 663.62 368.519 657.153C371.239 659.981 374.313 663.121 377.738 666.549C368.465 664.317 334.1 670.969 335.433 678.419C336.971 687.039 379.864 680.073 384.35 673.086C387.318 675.986 390.472 679.028 393.848 682.225C384.383 680.871 350.932 690.455 352.916 697.716C355.217 706.044 396.13 695.791 400.74 688.675C403.878 691.583 407.165 694.587 410.601 697.679C401.136 696.985 368.084 709.657 370.699 716.839C373.74 724.878 413.149 711.14 417.341 703.692C420.555 706.53 423.895 709.435 427.339 712.393C418.062 712.348 385.347 729.662 388.874 736.772C392.934 744.367 430.377 725.558 433.476 717.621C436.64 720.293 439.903 723.01 443.244 725.758C434.331 726.122 402.566 749.348 407.257 756.196C412.464 763.138 447.054 738.374 448.529 730.079C452.036 732.925 455.613 735.798 459.302 738.709C450.527 738.647 417.967 762.307 422.713 769.263C427.928 776.332 463.519 750.764 464.188 742.532C468.209 745.688 472.203 748.726 476.431 751.921C467.487 752.391 435.919 775.51 440.598 782.329C445.813 789.303 480.658 764.328 481.936 756.047C484.935 758.279 487.999 760.535 491.136 762.816C482.352 765.004 455.379 792.503 461.042 798.407C467.153 804.239 495.963 775.896 497.265 767.237C501.067 769.96 504.942 772.705 508.934 775.481C500.207 777.169 472.409 805.3 478.152 811.331C484.357 817.278 514.02 787.913 514.596 779.387C518.667 782.179 522.838 784.994 527.094 787.825C518.516 788.648 489.395 817.831 495.275 824.021C501.553 830.158 532.546 799.278 531.934 791.033C535.865 793.617 539.888 796.214 543.97 798.818C535.492 801.096 510.385 832.527 516.804 837.974C523.602 843.207 549.849 810.955 549.59 802.389C553.99 805.157 558.495 807.934 563.062 810.713C554.732 811.475 527.731 844.856 534.404 850.457C541.323 855.971 569.349 821.215 567.318 813.298C572.13 816.196 577.048 819.093 582.038 821.989C573.896 824.216 552.095 860.58 559.427 865.19C566.959 869.502 588.914 833.042 586.971 824.846C642.864 856.873 709.529 888.254 785.397 911.964L787.311 905.83Z" fill="#FCB4B4"/>
<path d="M2261.5 544.752C2271.38 567.946 2278.24 588.903 2280.21 600.697C2285.84 587.191 2291.31 574.725 2296.59 563.233C2285.84 555.717 2252.82 438.637 2264.2 434.879C2275.22 433.247 2302.31 532.705 2301.81 552.044C2307.9 539.231 2313.71 527.734 2319.2 517.45C2308.98 513.629 2299.52 383.199 2311.59 383.201C2316.7 382.859 2322.86 412.782 2325.36 450.037C2326.95 473.773 2326.67 494.743 2324.93 506.937C2332.38 493.567 2339.14 482.534 2345.1 473.512C2335.61 468.259 2351.35 337.735 2363.18 340.178C2373.8 342.68 2361.29 442.65 2353.66 461.101C2371.59 437.718 2375.15 428.448 2408.39 397.992C2472.91 338.526 2485.73 352.463 2420.92 411.653C2389.56 442.529 2376.73 439.234 2357.11 469.437C2372.18 459.721 2477.19 435.908 2481.02 446.704C2483.37 458.496 2361.53 484.657 2351.45 477.79C2345.22 487.23 2338.07 498.911 2330.17 513.228C2343.95 504.7 2456.01 491.693 2458.61 503.141C2459.57 515.122 2336.08 527.729 2326.53 519.91C2320.83 530.505 2314.78 542.405 2308.43 555.758C2324 547.636 2432.1 535.269 2434.74 546.489C2434.99 558.42 2317.33 570.395 2304.61 563.882C2299.02 575.92 2293.22 589.039 2287.23 603.354C2302.86 595.244 2410.84 582.898 2413.48 594.111C2413.62 606.016 2297.12 617.885 2283.82 611.62C2278.92 623.564 2273.92 636.297 2268.83 649.848C2283.31 641.472 2393.87 628.698 2396.51 640.065C2396.85 652.012 2278.26 664.078 2266.03 657.36C2261.37 670.233 2256.19 683.099 2250.56 695.055C2265.15 688.59 2378.58 692.717 2379.39 704.458C2378.03 716.353 2257.88 710.254 2247.41 701.609C2240.97 714.718 2233.95 727.102 2226.37 738.708C2237.4 731.646 2358.25 745.922 2357.36 757.876C2356.56 769.913 2227.36 752.92 2223.84 742.532C2214.03 757.107 2203.25 770.551 2191.18 782.977C2206.63 780.287 2315.88 813.837 2313.57 825.407C2309.46 836.686 2192.66 798.969 2186.22 787.944C2173.4 800.474 2159.62 811.413 2145.03 820.635C2161.19 821.178 2261.64 872.752 2257.43 883.714C2251.39 894.091 2143.09 836.55 2138.62 824.555C2099.55 847.551 2068.93 850.388 2067.61 850.5L2066.98 843.053C2067.28 843.027 2096.73 840.236 2133.78 818.725C2121.71 808.947 2076.03 703.708 2086.36 697.96C2097.65 694.744 2140.94 798.286 2140.41 814.716C2152.62 807.049 2166.29 796.794 2180.28 783.171C2168.48 779.442 2110.66 669.759 2121.18 663.955C2132.22 659.408 2185.89 765.02 2184.32 779.149C2195.17 768.123 2206.14 755.034 2216.72 739.545C2204.67 736.827 2138.19 632.062 2148.22 625.442C2158.89 620.22 2219.77 719.346 2220.21 734.317C2227.17 723.679 2233.92 711.972 2240.31 699.071C2229.35 700.018 2159.87 590.153 2170.44 584.338C2181.06 578.878 2243.25 680.191 2242.65 694.249C2248.02 683.032 2253.22 670.683 2257.9 657.801C2244.8 651.322 2181.94 552.285 2191.42 545.11C2201.7 540.397 2257.11 629.717 2261.56 647.941C2266.66 634.344 2271.67 621.571 2276.56 609.58C2265.11 605.248 2215.53 491.109 2226.49 486.175C2231.2 484.173 2246.87 510.398 2261.5 544.752Z" fill="#FCB4B4"/>
<path d="M1008.16 565.926C1007.11 556.996 921.001 557.017 909.725 562.282C915.52 552.438 921.376 540.265 926.235 525.658C934.281 530.975 1027.2 515.774 1025.97 506.68C1023.43 498.008 937.386 513.366 927.841 520.619C931.359 509.069 934.222 496.095 935.96 481.637C941.762 487.619 1035.91 453.908 1032.17 445.473C1028.57 437.04 941.25 469.594 936.339 478.258C937.42 468.089 937.954 457.223 937.762 445.611C947.826 447.87 1031.78 409.997 1028.49 401.464C1023.77 393.795 945.35 430.537 937.61 440.06C937.292 430.285 936.319 419.494 934.973 409.024C945.571 409.367 1022.11 359.667 1017.65 351.703C1011.82 344.942 941.253 392.141 934.254 402.939C932.985 391.947 931.941 381.543 931.097 371.714C942.258 371.379 1017.45 322.537 1013.14 314.533C1007.35 307.878 938.406 353.883 930.533 364.901C929.602 353.08 928.966 342.134 928.565 331.997C939.419 332.032 1015.36 282.717 1010.97 274.731C1005.18 268.072 936.157 314.133 928.323 325.141C927.981 313.843 927.941 303.639 928.115 294.446C937.29 296.461 1016.94 244.706 1012.06 236.925C1006.22 230.095 934.725 277.975 928.255 288.633C928.632 276.138 929.412 265.7 930.349 257.108C939.563 258.292 1013.34 197.895 1007.59 190.728C1001.15 184.78 938.209 237.529 931.282 249.452C934.065 222.106 943.963 219.793 954.49 187.882C977.886 125.027 964.317 119.991 941.201 182.972C929.225 215.33 930.071 222.773 926.027 244.987C924.807 229.85 898.342 157.371 890.273 159.45C881.387 161.933 916.253 256.145 924.54 256.415C923.639 264.629 922.892 274.492 922.499 286.181C919.371 272.264 878.087 203.174 870.222 206.714C862.026 210.945 913.981 296.287 922.271 295.333C922.129 304.241 922.193 314.087 922.53 324.922C916.177 311.659 862.911 253.383 856.049 258.396C849.667 264.972 912.907 332.94 922.884 334.355C923.306 344.012 923.941 354.395 924.831 365.543C918.245 353.763 854.73 300.418 848.318 306.443C842.633 313.661 916.098 373.873 925.445 372.864C926.306 382.724 927.364 393.155 928.644 404.18C919.331 393.386 850.319 351.926 845.052 358.758C841.173 366.989 918.355 412.283 929.596 412.164C930.91 422.558 931.691 432.765 931.955 442.268C927.524 432.537 849.736 385.297 844.481 392.757C839.346 400.412 924.907 450.825 932.051 446.364C932.208 457.368 931.704 467.686 930.69 477.347C925.237 467.364 849.091 421.145 843.724 428.464C839.263 436.494 920.95 484.449 930.14 482.122C928.359 496.345 925.471 509.075 921.944 520.36C918.145 510.25 844.647 457.1 838.79 464.088C833.708 471.739 911.227 526.055 920.6 524.505C915.841 538.654 910.13 550.399 904.507 559.874C899.2 548.577 833.472 493.186 826.985 499.367C822.036 506.932 889.711 562.42 901.397 564.916C883.732 592.454 864.707 604.634 864.475 604.781L867.506 609.623C868.363 609.087 888.19 596.468 906.727 567.188C913.89 573.779 1007.74 575.091 1008.16 565.926Z" fill="#CE4ABF"/>
<path d="M669.885 1630.67C619.652 1630.67 578.93 1589.94 578.93 1539.71V584.299C578.93 534.066 619.652 493.344 669.885 493.344H2064.63C2114.87 493.344 2155.59 534.066 2155.59 584.299V1539.71C2155.59 1589.94 2114.87 1630.67 2064.63 1630.67H669.885Z" fill="#FED7AA"/>
<path d="M2073.32 571.259H661.203V1552.75H2073.32V571.259Z" fill="white"/>
<path d="M2016.67 627.916H717.859V1496.09H2016.67V627.916Z" fill="#FFF6EC"/>
<path d="M2056 1082.4V1059.74H1725.07L1483.31 1233.98H888.582L886.337 859.856L1080.04 1053.56L1112.09 1021.51L929.524 838.943H2029.61V816.281H908.805V609.622H863.48V816.281H863.412L863.48 827.591V837L863.537 837.056L864.604 1014.87H687.312V1060.2H864.876L865.919 1233.98H687.312V1279.31H866.191L867.646 1521.62L890.308 1521.48L888.854 1279.31H1465.76V1521.55H1488.42V1279.31H1712.16L1834.44 1336.11L1656.22 1514.34L1688.27 1546.39L1878.21 1356.44L2020.07 1422.33L2039.16 1381.22L1722.18 1233.98H1522.07L1732.39 1082.4H2056Z" fill="white"/>
<path d="M1135.73 1496.1H1056.41V997.877H1652.33V827.612H1731.65V1077.2H1135.73V1496.1Z" fill="#FED7AA"/>
<path d="M1742.17 830.93C1741.87 899.402 1637.76 899.396 1637.46 830.927C1637.77 762.459 1741.87 762.465 1742.17 830.93Z" fill="#EB5648"/>
<path d="M1718.21 830.93C1718.75 867.77 1660.88 867.77 1661.43 830.927C1660.89 794.091 1718.75 794.09 1718.21 830.93Z" fill="white"/>
<path d="M1806.36 539.601C1814.57 637.686 1689.82 764.651 1689.82 764.651C1387.97 444.185 1786.39 301.219 1806.36 539.601Z" fill="#EB5648"/>
<path d="M1754.29 538.117C1752.85 622.865 1626.79 622.852 1625.35 538.114C1626.8 453.369 1752.86 453.383 1754.29 538.117Z" fill="white"/>
<path d="M1096.07 1114.21V1352.35L938.953 1386.35L1096.07 1114.21Z" fill="#EB5648"/>
<path d="M1253.18 1386.35L1096.07 1352.35V1114.21L1253.18 1386.35Z" fill="#D33F37"/>
<path d="M1372.62 1333.26L1335.01 1443.93H2025.97L1941.12 1300.16C1913.3 1253.01 1866.33 1224.67 1816.02 1224.67H1373.59C1364.45 1224.67 1359.57 1235.49 1365.66 1242.29C1373.29 1250.81 1390.29 1263.31 1412.73 1267.72C1395.28 1285.29 1381.35 1307.56 1372.62 1333.26Z" fill="#EB5648"/>
<path d="M1307.24 1587.74H1256.43V1608.38H1307.24V1587.74Z" fill="#CE3932"/>
<path d="M2227.67 1535.22C2226.29 1545.98 2219.37 1555.73 2208.65 1560.21L2207.14 1560.83C2207.13 1560.84 2207.13 1560.84 2207.13 1560.84L2182.34 1503.13L2184.44 1502.32C2200.43 1495.63 2218.81 1503.17 2225.49 1519.16C2227.69 1524.42 2228.35 1529.94 2227.67 1535.22Z" fill="#F9B233"/>
<path d="M2227.67 1535.22C2226.29 1545.98 2219.37 1555.73 2208.65 1560.21L2207.14 1560.83C2207.45 1560.48 2220.96 1544.67 2214.56 1525.69C2208.1 1506.49 2182.34 1503.13 2182.34 1503.13L2184.44 1502.32C2200.43 1495.63 2218.81 1503.17 2225.49 1519.16C2227.69 1524.42 2228.35 1529.94 2227.67 1535.22Z" fill="#FFC261"/>
<path d="M1259.91 1541.24C1263.99 1551.28 1273.18 1558.93 1284.69 1560.52L1286.32 1560.74C1286.33 1560.74 1286.33 1560.74 1286.33 1560.74L1295.51 1498.6L1293.26 1498.36C1276.1 1495.99 1260.26 1507.99 1257.9 1525.15C1257.12 1530.81 1257.9 1536.31 1259.91 1541.24Z" fill="#F9B233"/>
<path d="M1259.91 1541.24C1263.99 1551.28 1273.18 1558.93 1284.69 1560.52L1286.32 1560.74C1285.93 1560.47 1268.82 1548.65 1270.14 1528.67C1271.47 1508.46 1295.51 1498.6 1295.51 1498.6L1293.26 1498.36C1276.1 1495.99 1260.26 1507.99 1257.9 1525.15C1257.12 1530.81 1257.9 1536.31 1259.91 1541.24Z" fill="#FFC261"/>
<path d="M1412.27 1721.29C1455.97 1721.29 1491.39 1685.86 1491.39 1642.16C1491.39 1598.46 1455.97 1563.04 1412.27 1563.04C1368.57 1563.04 1333.14 1598.46 1333.14 1642.16C1333.14 1685.86 1368.57 1721.29 1412.27 1721.29Z" fill="#245084"/>
<path d="M1412.26 1681.14C1433.79 1681.14 1451.24 1663.69 1451.24 1642.16C1451.24 1620.63 1433.79 1603.18 1412.26 1603.18C1390.73 1603.18 1373.28 1620.63 1373.28 1642.16C1373.28 1663.69 1390.73 1681.14 1412.26 1681.14Z" fill="#2C6399"/>
<path d="M2049.81 1721.29C2093.51 1721.29 2128.94 1685.86 2128.94 1642.16C2128.94 1598.46 2093.51 1563.04 2049.81 1563.04C2006.11 1563.04 1970.69 1598.46 1970.69 1642.16C1970.69 1685.86 2006.11 1721.29 2049.81 1721.29Z" fill="#245084"/>
<path d="M2049.82 1681.14C2071.35 1681.14 2088.8 1663.69 2088.8 1642.16C2088.8 1620.63 2071.35 1603.18 2049.82 1603.18C2028.29 1603.18 2010.84 1620.63 2010.84 1642.16C2010.84 1663.69 2028.29 1681.14 2049.82 1681.14Z" fill="#2C6399"/>
<path d="M2224.04 1627.07C2221.03 1635.78 2212.74 1642.16 2202.84 1642.16H2138.44C2138.44 1637.02 2138 1631.98 2137.16 1627.07C2130 1585.32 2093.61 1553.54 2049.81 1553.54C2006.01 1553.54 1969.63 1585.32 1962.47 1627.07H1962.46C1961.63 1631.98 1961.19 1637.02 1961.19 1642.16H1500.88C1500.88 1637.02 1500.44 1631.98 1499.61 1627.07H1499.6C1492.44 1585.32 1456.06 1553.54 1412.26 1553.54C1387.79 1553.54 1365.63 1563.45 1349.59 1579.5C1333.55 1595.53 1323.63 1617.69 1323.63 1642.16C1317.17 1642.16 1311.05 1640.74 1305.54 1638.2C1290.71 1631.35 1280.42 1616.36 1280.42 1598.94V1548.61C1280.42 1476.51 1338.87 1418.06 1410.97 1418.06H2031.01C2186.54 1418.06 2218.54 1558.9 2225.11 1617.28C2225.5 1620.71 2225.09 1624.03 2224.04 1627.07Z" fill="#EB5648"/>
<path d="M1406.06 1433.42L1439.31 1333.3L1439.38 1333.1C1446.73 1313.24 1458.57 1295.1 1473.63 1280.63C1487.92 1266.91 1505.27 1256.34 1523.8 1250.08C1528.71 1248.42 1533.77 1247.04 1538.84 1245.98C1547.69 1244.11 1556.82 1243.15 1565.94 1243.15H1814.74C1815.2 1243.15 1815.67 1243.15 1816.14 1243.16C1861.11 1243.64 1902.79 1267.01 1927.65 1305.71L1927.8 1305.95L2001.63 1433.42H1406.06Z" fill="#CE3932"/>
<path d="M1976.08 1418.06H1427.31L1454.61 1337.39C1461.39 1319.41 1472.02 1303.75 1485.33 1291.19C1498.17 1279.09 1513.5 1269.89 1530.28 1264.33C1534.66 1262.87 1539.15 1261.66 1543.72 1260.73C1551.6 1259.09 1559.73 1258.24 1567.99 1258.24H1813.09C1813.47 1258.24 1813.85 1258.24 1814.23 1258.25C1854.47 1258.63 1891.94 1279.22 1914.23 1313.26L1976.08 1418.06Z" fill="#C3DCFC"/>
<path d="M1592.44 1418.06H1536.64L1485.34 1291.19C1498.17 1279.09 1513.5 1269.89 1530.28 1264.33L1592.44 1418.06Z" fill="#DCEDFF"/>
<path d="M1634.96 1418.06H1607.34L1543.72 1260.73C1551.61 1259.09 1559.73 1258.24 1568 1258.24H1570.34L1634.96 1418.06Z" fill="#DCEDFF"/>
<path d="M1836.34 1418.06H1780.53L1715.91 1258.24H1771.71L1836.34 1418.06Z" fill="#DCEDFF"/>
<path d="M1878.85 1418.06H1851.23L1786.61 1258.24H1813.09C1813.47 1258.24 1813.86 1258.24 1814.24 1258.25L1878.85 1418.06Z" fill="#DCEDFF"/>
<path d="M1726.95 1461.85H1689.99V1480.21H1726.95V1461.85Z" fill="#CE3932"/>
<path d="M1599.45 1461.85H1562.5V1480.21H1599.45V1461.85Z" fill="#CE3932"/>
<path d="M2155.54 1627.07C2140.04 1506.97 1959.56 1507.04 1944.08 1627.07H1635.58V1551.11C1635.58 1505.92 1651.7 1462.06 1680.97 1427.62L1683.16 1425.05V1244.84H1664.8V1418.35C1634.1 1455.69 1617.22 1502.7 1617.22 1551.11V1627.07H1517.99C1507.53 1549.15 1430.53 1522.89 1372.2 1544.31C1373 1507.68 1381.79 1477.22 1397.75 1455.98C1410.23 1439.36 1422.9 1434.03 1423.03 1433.98L1422.96 1434L1416.27 1416.91C1415.59 1417.17 1399.56 1423.61 1384.02 1443.71C1370.23 1461.56 1353.78 1497.38 1353.78 1552.79L1354.47 1552.68C1326.97 1568.85 1306.79 1597.54 1305.54 1638.2C1311.05 1640.74 1317.17 1642.16 1323.63 1642.16C1326.78 1524.82 1498.19 1525.79 1500.88 1642.16H1617.22H1635.58H1961.19C1962.99 1525.74 2136.66 1525.78 2138.44 1642.16H2202.84C2212.74 1642.16 2221.03 1635.78 2224.04 1627.07L2155.54 1627.07Z" fill="#CE3932"/>
<path d="M2118.66 1476.26H2019.5C2016.74 1476.26 2014.5 1474.02 2014.5 1471.26C2014.5 1468.5 2016.74 1466.26 2019.5 1466.26H2118.66C2121.42 1466.26 2123.66 1468.5 2123.66 1471.26C2123.66 1474.02 2121.42 1476.26 2118.66 1476.26Z" fill="#CE3932"/>
<path d="M2118.66 1494.36H2019.5C2016.74 1494.36 2014.5 1492.12 2014.5 1489.35C2014.5 1486.59 2016.74 1484.35 2019.5 1484.35H2118.66C2121.42 1484.35 2123.66 1486.59 2123.66 1489.35C2123.66 1492.12 2121.42 1494.36 2118.66 1494.36Z" fill="#CE3932"/>
<path d="M2118.66 1512.45H2019.5C2016.74 1512.45 2014.5 1510.21 2014.5 1507.45C2014.5 1504.68 2016.74 1502.45 2019.5 1502.45H2118.66C2121.42 1502.45 2123.66 1504.68 2123.66 1507.45C2123.66 1510.21 2121.42 1512.45 2118.66 1512.45Z" fill="#CE3932"/>
<path d="M380.12 1717.09L379.134 1716.57C379.134 1717.26 378.28 1719.66 377.59 1719.66L348.423 1720.26C347.733 1720.26 347.308 1718.96 347.308 1718.27L344.82 1717.56C344.82 1713.19 345.179 1711.61 347.109 1708.23C354.2 1698.8 345.735 1656.65 345.98 1645.64C344.231 1642.63 376.695 1644.99 377.148 1644.28C377.877 1644.28 378.452 1644.9 378.394 1645.63L374.573 1693.8C372.858 1702.94 379.876 1708.47 380.12 1717.09Z" fill="#F99370"/>
<path d="M524.389 1721.29H466.291C461.219 1721.08 461.258 1715.91 462.193 1711.9C465.392 1697.44 459.737 1664.24 458.689 1649.37C458.41 1646.65 460.547 1644.28 463.284 1644.28C506.154 1643.85 492.167 1640.41 488.845 1686.66C486.31 1702.81 505.578 1705.89 516.564 1707.68C523.797 1708.2 535.892 1718.07 524.389 1721.29Z" fill="#F99370"/>
<path d="M459.982 1715.26C460.139 1718.11 461.551 1721.36 464.851 1721.29H525.115C539.329 1716.01 518.031 1697.16 490.207 1697.27C470.424 1702.7 459.312 1687.28 459.982 1715.26Z" fill="#103663"/>
<path d="M349.443 1721.29H375.2C387.753 1719.57 378.709 1695.49 362.325 1697.23C345.895 1695.15 336.9 1719.59 349.443 1721.29Z" fill="#103663"/>
<path d="M510.745 1713.13C511.251 1713.13 511.73 1712.83 511.932 1712.33C514.248 1706.62 518.423 1704.87 518.6 1704.8C521.857 1699.66 512.393 1703.32 509.559 1711.37C509.206 1712.19 509.859 1713.15 510.745 1713.13Z" fill="#E8C0A6"/>
<path d="M500.799 1711.93C501.346 1711.93 501.852 1711.58 502.023 1711.03C504.07 1704.41 509.833 1701.35 509.891 1701.32C512.844 1695.35 501.841 1701.74 499.576 1710.27C499.311 1711.08 499.955 1711.94 500.799 1711.93Z" fill="#E8C0A6"/>
<path d="M489.472 1710.54C490.002 1710.54 490.497 1710.21 490.682 1709.68C493.073 1702.8 498.595 1699.06 498.651 1699.02C501.918 1690.2 483.885 1708.18 489.472 1710.54Z" fill="#E8C0A6"/>
<path d="M353.089 1704.89C360.244 1700.55 371.219 1704.46 371.261 1704.77C378.732 1703.16 361.065 1696.86 352.441 1702.5C351.317 1703.11 351.833 1704.93 353.089 1704.89Z" fill="#E8C0A6"/>
<path d="M529.327 1715.26H459.977C460.232 1717.38 460.817 1719.43 461.879 1721.29H525.11C528.224 1721.29 530.433 1718.17 529.327 1715.26Z" fill="#0F2E54"/>
<path d="M349.441 1721.29H375.198C378.475 1721.29 381.112 1718.53 380.91 1715.26H343.729C343.53 1718.53 346.164 1721.29 349.441 1721.29Z" fill="#0F2E54"/>
<path d="M493.368 1131.92C493.368 1131.92 499.679 1114.22 484.661 1105.61L473.266 1111.51L493.368 1131.92Z" fill="#C92828"/>
<path d="M482.927 1274.76C539.641 1318.05 610.64 1308.38 650.877 1278.26L652.976 1257.68C560.169 1264.87 537.623 1220.37 477.891 1193.36C477.891 1193.36 482.294 1273.37 482.927 1274.76Z" fill="#3A72AA"/>
<path d="M340.371 1664.32C340.468 1668.36 340.578 1672.44 340.712 1676.57C340.712 1676.57 362.561 1690.99 384.105 1680.92C392.535 1635.02 410.51 1536.71 428.654 1418.16C428.886 1414.67 461.537 1577.11 450.267 1684.68C450.267 1684.68 474.5 1690.93 496.361 1682.73C511.721 1627.85 512.253 1528.26 501.28 1319.9C501.28 1319.9 435.649 1316.2 387.912 1292.53C346.771 1340.25 335.403 1584.67 340.371 1664.32Z" fill="#9358E0"/>
<path d="M472.22 1191.23C474.941 1176.84 481.546 1150.96 470.726 1144.58C463.106 1140.41 452.364 1145.69 453.317 1155.23C454.129 1154.89 452.095 1181.29 449.257 1188.24C426.82 1191.04 487.504 1222.94 472.22 1191.23Z" fill="#F99370"/>
<path d="M453.299 1154.01C453.288 1154.41 453.291 1154.82 453.318 1155.23C453.906 1154.96 452.969 1169.56 451.227 1179.98C460.263 1186.08 471.503 1185.96 473.569 1185.89C475.211 1170.56 481.083 1151.61 470.724 1144.58C463.636 1140.03 453.357 1145.45 453.299 1154.01Z" fill="#E57D61"/>
<path d="M439.534 1141.82C439.464 1152.3 440.967 1164.37 447.883 1172.47H447.895C448.177 1172.8 448.459 1173.11 448.764 1173.41C448.764 1173.42 448.776 1173.42 448.776 1173.43C459.24 1183.36 475.824 1185.11 489.079 1177.5H489.091C499.754 1170.44 504.627 1159.34 501.28 1149.6C498.99 1143.79 493.929 1138.18 493.365 1131.91C489.951 1093.88 439.767 1101.3 439.534 1141.82Z" fill="#F99370"/>
<path d="M479.507 1142.09C480.739 1140.48 478.174 1138.58 476.991 1140.23C475.759 1141.85 478.323 1143.74 479.507 1142.09Z" fill="#C16256"/>
<path d="M492.851 1142.1C494.083 1140.48 491.518 1138.59 490.334 1140.24C489.103 1141.85 491.667 1143.75 492.851 1142.1Z" fill="#C16256"/>
<path d="M439.534 1141.82C439.464 1152.3 440.967 1164.37 447.883 1172.47H447.895C448.177 1172.8 448.459 1173.11 448.764 1173.41C440.558 1156.98 442.763 1153.6 446.462 1142.16C458.553 1133.56 458.127 1121.82 469.447 1121.87C480.768 1121.9 490.006 1120.37 490.006 1120.37C477.312 1093.34 439.37 1108.98 439.534 1141.82Z" fill="#E57D61"/>
<path d="M486.975 1154.8C489.552 1154.73 492.862 1153.55 490.075 1150.86C487.427 1148.79 486.301 1142.38 486.289 1142.32C483.649 1139.87 486.333 1149.48 489.345 1151.79C491.397 1153.58 486.401 1154.13 484.551 1153.11C481.878 1153.53 485.83 1155.14 486.975 1154.8Z" fill="#C16256"/>
<path d="M364.336 1363.47C396.11 1387.51 471.486 1393.76 503.213 1382.28C513.907 1377.75 515.404 1341.73 514.163 1306.35C512.261 1259.19 500.768 1225.1 479.006 1193.59C478.738 1193.48 474.602 1191.64 472.23 1191.24C472.335 1195.55 471.351 1208 449.262 1188.24C449.164 1188.32 442.667 1187.45 440.637 1188.32C438.52 1189.93 414.603 1205.49 413.995 1208.02C412.194 1215.59 404.117 1234.31 395.285 1256.13C385.075 1281.65 374.609 1307.8 370.115 1331.7C368.363 1341.64 358.035 1354.1 364.336 1363.47Z" fill="#23659B"/>
<path d="M437.732 1127.69C441.29 1097.73 459.822 1098.63 459.822 1098.63V1098.63C475.77 1077.39 511.327 1088.04 496.524 1111.91C488.125 1126.62 466.643 1110.22 453.961 1129.06C448.864 1136.64 445.712 1141.31 436.872 1145.19C436.87 1145.19 435.71 1135.8 437.732 1127.69Z" fill="#C92828"/>
<path d="M432.191 1145.88C432.55 1157.8 447.587 1157.18 446.96 1145.27C446.601 1133.35 431.563 1133.97 432.191 1145.88Z" fill="#F99370"/>
<path d="M486.604 1163.31C488.731 1163.51 490.65 1162.43 488.71 1161.9C488.468 1161.97 482.678 1163.45 476.61 1157.82C476.371 1157.6 475.995 1157.61 475.773 1157.86C477.563 1162.37 484.866 1163.28 486.604 1163.31Z" fill="#C16256"/>
<path d="M440.961 1188.47C448.233 1200.88 480.337 1220.19 479.013 1193.6C478.742 1193.47 474.618 1191.65 472.23 1191.24C472.279 1191.94 473.544 1210.23 449.257 1188.23C449.284 1188.42 442.78 1187.25 440.961 1188.47Z" fill="#3A72AA"/>
<path d="M482.669 1674.27C508.127 1548.96 481.254 1387.46 477.178 1386.26C475.089 1387.23 498.503 1549.56 482.34 1674.31C472.932 1675.47 461.33 1675.29 451.543 1670.24C451.154 1675.08 450.728 1679.89 450.266 1684.68C450.266 1684.68 474.499 1690.93 496.36 1682.73C496.36 1682.73 497.795 1678.54 500.058 1670.24C500.058 1670.24 492.635 1672.99 482.669 1674.27Z" fill="#7640CC"/>
<path d="M364.563 1671.82C386.023 1535.62 409.346 1381.46 406.358 1379.12C403.255 1379.56 379.432 1536.5 364.18 1671.78C356.931 1671.06 348.609 1669.02 340.375 1664.32C340.472 1668.36 340.582 1672.44 340.716 1676.57C340.716 1676.57 362.565 1690.99 384.109 1680.92C384.109 1680.92 384.815 1677.15 386.08 1670.24C386.08 1670.24 376.936 1672.96 364.563 1671.82Z" fill="#7640CC"/>
<path d="M399.3 1200.72C399.3 1200.72 367.064 1226.21 359.744 1268.08C348.351 1333.24 379.333 1368.82 445.663 1386.85C445.663 1386.85 447.739 1378.65 456.66 1376.03C456.66 1376.03 424.905 1351.52 416.91 1322.19C408.915 1292.86 412.78 1250.56 428.037 1233.93C428.037 1233.93 416.07 1206.51 399.3 1200.72Z" fill="#3A72AA"/>
<path d="M421.533 1191.63C428.691 1183.9 441.546 1183.35 443.783 1190.67C450.852 1213.78 461.129 1234.71 464.607 1241.51C465.65 1240.82 467.079 1240.51 468.284 1240.46C484.795 1216.87 481.093 1194.93 481.093 1194.93C491.351 1194.23 498.073 1198.19 501.718 1204.43C519.536 1210.97 517.387 1225.04 501.093 1235.61C497.288 1244 490.851 1251.49 482.264 1255.52C488.493 1269.8 496.025 1292.36 487.46 1296.69C483.599 1300.34 474.055 1301.99 473.817 1291.34C473.62 1282.53 473.142 1269.12 472.069 1260.81C471.191 1260.94 470.204 1260.88 469.092 1260.58C469.101 1260.58 467.825 1290.04 472.685 1308.46C477.541 1326.88 454.736 1323.38 447.251 1317.35C441.378 1312.61 446.521 1275.16 455.074 1254.91C449.906 1252.09 444.632 1247.89 439.709 1242.99L439.712 1243C430.42 1233.59 366.201 1197.41 421.533 1191.63Z" fill="#1D3F70"/>
<path d="M689.729 1225.42L379.164 1452.37L393.021 1471.33L703.586 1244.39L689.729 1225.42Z" fill="#EB5648"/>
<path d="M541.721 1333.58L379.164 1452.36L393.021 1471.33L555.578 1352.54L541.721 1333.58Z" fill="#CE3932"/>
<path opacity="0.4" d="M911.165 1252.43C966.303 1197.29 966.303 1107.89 911.165 1052.75C856.027 997.617 766.63 997.617 711.492 1052.75C656.354 1107.89 656.354 1197.29 711.492 1252.43C766.63 1307.56 856.027 1307.57 911.165 1252.43Z" fill="white"/>
<path opacity="0.4" d="M955.352 1203.92C950.396 1217.9 943.387 1231.23 934.404 1243.41L926.015 1235.02L917.574 1226.58L737.367 1046.37L720.531 1029.54C721.067 1029.14 721.61 1028.75 722.152 1028.36C734.058 1019.81 746.795 1013.22 759.963 1008.53L769.221 1017.79L778.741 1027.31H778.748L936.575 1185.14L946.121 1194.69L955.352 1203.92Z" fill="white"/>
<path opacity="0.4" d="M920.319 1259.91C914.317 1266.01 907.713 1271.68 900.534 1276.83C888.268 1285.64 875.12 1292.36 861.527 1297.08L852.223 1287.77L842.645 1278.19L685.733 1121.28L676.194 1111.74L666.844 1102.39C674.52 1080.14 687.184 1060.11 704.014 1043.6L720.628 1060.22L903.706 1243.3L912.022 1251.62L920.319 1259.91Z" fill="white"/>
<path d="M935.568 1063.4C857.609 952.731 680.135 995.947 660.426 1127.82C638.38 1238.56 757.992 1337.2 861.525 1297.07C955.503 1266.39 995.994 1144.64 935.568 1063.4ZM936.568 1185.14C925.676 1229.94 887.345 1267.76 842.639 1278.19C716.756 1310 626.862 1152.04 720.625 1060.21C813.213 968.934 969.751 1059.61 936.568 1185.14Z" fill="#CE3932"/>
<path d="M664.197 1276.77C670.166 1281.59 675.443 1273.27 667.1 1272.34L667.207 1272.42C663.935 1269.87 661.075 1274.45 664.197 1276.77Z" fill="#F99370"/>
<path d="M668.387 1273.74C676.128 1277.91 678.356 1267.44 670.852 1268.84C671.02 1268.85 670.138 1268.66 670.294 1268.68C666.538 1266.81 665.048 1272.19 668.387 1273.74Z" fill="#F99370"/>
<path d="M672.876 1270.71L675.754 1271.26C679.8 1271.89 679.26 1266 675.875 1265.57L672.998 1265.02C668.952 1264.39 669.492 1270.29 672.876 1270.71Z" fill="#F99370"/>
<path d="M676.368 1267.47L679.245 1268.02C683.291 1268.65 682.751 1262.75 679.366 1262.33L676.489 1261.77C672.444 1261.15 672.984 1267.04 676.368 1267.47Z" fill="#F99370"/>
<path d="M480.047 1379.92L474.401 1383.98C474.426 1384.02 474.451 1384.06 474.476 1384.1C476.909 1387.82 480.201 1390.9 484.047 1393.13C487.771 1395.28 491.424 1397.41 495.527 1399.08C500.904 1407.14 478.887 1397.39 476.147 1396.83C476.123 1396.88 476.126 1396.87 476.101 1396.92C481.154 1401.35 486.476 1405.48 492.135 1409.1C495.764 1418.73 474.513 1402.52 471.976 1401.08C471.961 1401.1 471.963 1401.1 471.947 1401.12C475.94 1406.14 480.589 1410.64 485.687 1414.54C488.488 1424.63 468.257 1406.41 466.294 1404.19C466.269 1404.2 466.245 1404.21 466.22 1404.22C468.756 1408.67 471.889 1412.77 475.22 1416.67C476.55 1426.58 461.344 1408.06 459.829 1405.83C458.225 1404.94 450.362 1397.52 445.661 1386.85C444.121 1383.35 453.528 1374.08 456.658 1376.03C459.007 1377.5 466.605 1377.5 468.255 1377.98C472.1 1378.52 476.075 1378.41 480.047 1379.92Z" fill="#F99370"/>
<path d="M472.579 1138.04C472.437 1138.04 472.294 1137.99 472.182 1137.89C471.943 1137.67 471.927 1137.29 472.147 1137.06C475.693 1133.2 480.702 1133.46 480.91 1133.47C481.234 1133.49 481.479 1133.77 481.46 1134.09C481.44 1134.41 481.148 1134.66 480.839 1134.64C480.796 1134.64 476.168 1134.41 473.012 1137.85C472.896 1137.98 472.738 1138.04 472.579 1138.04Z" fill="#C16256"/>
<path d="M493.174 1136.34C493.047 1136.34 492.918 1136.3 492.811 1136.21C492.784 1136.19 490.048 1134.08 486.763 1134.63C486.444 1134.68 486.141 1134.47 486.086 1134.15C486.032 1133.83 486.248 1133.52 486.568 1133.47C490.378 1132.83 493.413 1135.19 493.54 1135.29C493.794 1135.49 493.836 1135.86 493.636 1136.11C493.519 1136.26 493.348 1136.34 493.174 1136.34Z" fill="#C16256"/>
<path d="M442.832 1141.78C443.244 1140.57 439.48 1139.04 436.764 1140.42C435.377 1141.04 433.519 1146.08 435.563 1148.91C435.917 1148.91 436.2 1148.59 436.151 1148.24C435.828 1145.76 435.943 1143.88 436.459 1142.67C436.507 1142.69 436.553 1142.72 436.608 1142.73C436.768 1142.77 440.53 1143.66 441.487 1149.02C441.543 1149.34 441.819 1149.56 442.13 1149.56C442.168 1149.56 442.207 1149.56 442.246 1149.55C442.602 1149.49 442.838 1149.15 442.775 1148.79C441.825 1143.47 438.378 1141.93 437.247 1141.56C437.303 1141.51 437.352 1141.45 437.412 1141.41C439.987 1139.95 441.895 1142.82 442.832 1141.78Z" fill="#C16256"/>
<path d="M1310.96 208.964C1310.96 208.964 1319.65 192.171 1346.15 197.129C1372.64 202.087 1378.9 235.709 1387.89 251.013C1406.94 283.432 1412.65 317.879 1402.75 334.427C1391.76 352.806 1367.49 345.619 1332.04 342.324C1294.21 338.807 1278.37 305.977 1301.9 260.836L1310.96 208.964Z" fill="#C92828"/>
<path d="M1321.95 287.02C1311.59 302.212 1304.97 376.291 1304.76 382.047C1292.57 381.146 1263.28 378.982 1250.79 378.059C1247.27 350.941 1283.22 295.328 1316.02 288.74C1316.02 288.731 1316.02 288.731 1316.02 288.731C1319.71 287.477 1321.95 287.02 1321.95 287.02Z" fill="#3A72AA"/>
<path d="M1168.29 695.415L1220.98 694.837C1220.84 686.416 1218.6 669.414 1220.27 659.805L1197.53 662.739C1198.16 667.355 1199.56 677.366 1191.9 679.762C1181.97 682.866 1171.16 681.911 1164.97 689.549C1163.36 692.114 1165.26 695.448 1168.29 695.415Z" fill="#F99370"/>
<path d="M1222.53 689.746C1222.33 691.53 1221.86 693.266 1220.98 694.837L1167.78 695.421C1165.2 695.449 1163.3 692.924 1164.13 690.474C1166.08 684.749 1173.01 676.395 1197.51 674.844C1197.51 674.844 1205.88 677.235 1219.57 674.602C1219.57 674.602 1223.33 682.514 1222.53 689.746Z" fill="#1D3F70"/>
<path d="M1179.76 688.424C1179.34 688.424 1178.94 688.175 1178.77 687.762C1176.77 682.974 1173.23 681.541 1173.08 681.482C1170.26 677.19 1178.31 680.178 1180.76 686.93C1181.06 687.62 1180.51 688.438 1179.76 688.424Z" fill="#E8C0A6"/>
<path d="M1188.13 687.321C1187.67 687.321 1187.25 687.029 1187.1 686.573C1185.32 681.022 1180.44 678.501 1180.39 678.476C1177.82 673.478 1187.18 678.755 1189.15 685.912C1189.39 686.593 1188.84 687.332 1188.13 687.321Z" fill="#E8C0A6"/>
<path d="M1197.64 686.045C1197.2 686.045 1196.79 685.771 1196.63 685.332C1194.55 679.57 1189.87 676.471 1189.82 676.44C1187.83 671.194 1196.35 677.488 1198.66 684.601C1198.92 685.286 1198.37 686.058 1197.64 686.045Z" fill="#E8C0A6"/>
<path d="M1164.16 690.387L1222.53 689.746C1222.33 691.53 1221.86 693.266 1220.98 694.837L1167.78 695.421C1165.16 695.454 1163.25 692.849 1164.16 690.387Z" fill="#395B96"/>
<path d="M1335.21 494.269C1309.27 493.179 1264.1 478.897 1244.61 511.888C1223.28 547.919 1228.5 624.356 1230.66 661.295C1202.19 670.462 1186.89 661.295 1186.89 661.295C1174.76 585.679 1134.82 413.441 1268.38 437.339C1268.38 437.334 1357.95 437.334 1357.95 437.334C1372.93 467.871 1359.53 493.759 1335.21 494.269Z" fill="#3A72AA"/>
<path d="M1231.47 695.412L1284.16 694.834C1284.02 686.412 1281.78 669.411 1283.45 659.802C1283.45 659.802 1260.71 662.739 1260.71 662.739C1261.34 667.355 1262.92 677.366 1255.08 679.758C1245.13 682.794 1234.34 681.907 1228.15 689.545C1226.54 692.111 1228.44 695.445 1231.47 695.412Z" fill="#F99370"/>
<path d="M1285.71 689.743C1285.51 691.527 1285.04 693.263 1284.16 694.834L1230.96 695.418C1228.38 695.446 1226.48 692.921 1227.31 690.471C1229.26 684.746 1236.19 676.392 1260.69 674.841C1260.69 674.841 1269.06 677.232 1282.75 674.599C1282.75 674.599 1286.51 682.511 1285.71 689.743Z" fill="#1D3F70"/>
<path d="M1242.94 688.421C1242.52 688.421 1242.12 688.172 1241.95 687.759C1239.95 682.971 1236.41 681.538 1236.26 681.479C1233.44 677.187 1241.49 680.175 1243.94 686.927C1244.24 687.617 1243.69 688.435 1242.94 688.421Z" fill="#E8C0A6"/>
<path d="M1251.31 687.318C1250.85 687.318 1250.43 687.026 1250.28 686.57C1248.5 681.019 1243.62 678.498 1243.57 678.473C1241 673.475 1250.36 678.752 1252.33 685.909C1252.57 686.59 1252.02 687.328 1251.31 687.318Z" fill="#E8C0A6"/>
<path d="M1260.82 686.042C1260.38 686.042 1259.97 685.768 1259.81 685.329C1257.73 679.567 1253.05 676.468 1253 676.438C1251.01 671.192 1259.53 677.486 1261.84 684.599C1262.1 685.283 1261.55 686.055 1260.82 686.042Z" fill="#E8C0A6"/>
<path d="M1227.34 690.384L1285.71 689.743C1285.51 691.527 1285.04 693.263 1284.16 694.834L1230.96 695.418C1228.34 695.451 1226.43 692.846 1227.34 690.384Z" fill="#395B96"/>
<path d="M1275.67 437.334L1268.01 493.176C1234.52 506.366 1232.27 542.54 1229.21 582.209C1213.7 520.922 1214.89 458.036 1275.67 437.334Z" fill="#23659B"/>
<path d="M1368.96 496.858C1341.82 513.564 1314.71 495.335 1295.63 533.866C1280.23 567.601 1288.86 632.069 1293.09 661.295C1264.62 670.462 1249.32 661.295 1249.32 661.295C1232.44 596.066 1193.84 444.477 1302.92 437.337C1332.79 436.386 1372.05 436.647 1398.45 435.057C1398.45 435.057 1405.78 474.191 1368.96 496.858Z" fill="#3A72AA"/>
<path d="M1398.97 419.627C1401.29 436.148 1397.93 455.355 1397.93 455.355C1362.67 444.145 1330.61 443.108 1277.04 435.626C1310.87 334.293 1232.51 405.196 1321.95 287.019C1322.17 287.037 1343.89 289.004 1344.09 289.017C1369.24 307.931 1385.44 333.006 1398.97 419.627Z" fill="#3A72AA"/>
<path d="M1276.25 359.305C1275.73 359.308 1275.31 358.853 1275.36 358.333C1277.14 343.532 1292.82 324.345 1294.88 325.369C1296.29 327.178 1278.2 343.071 1277.14 358.486C1277.1 358.953 1276.71 359.305 1276.25 359.305Z" fill="#23659B"/>
<path d="M1182.5 443.129H1301.05L1277.45 356.235H1159.62L1182.5 443.129Z" fill="#163260"/>
<path d="M1301.05 442.699H1182.51V448.6H1301.05V442.699Z" fill="#234270"/>
<path d="M1275.66 356.235H1279.91L1303.02 442.699H1359.28V448.6H1299.07V443.322L1275.66 356.235Z" fill="#0B274F"/>
<path d="M1383.07 305.846C1410.4 326.328 1425 363.188 1417.78 396.707C1415.01 415.536 1403.13 433.443 1384.55 438.773C1375.37 442.442 1332.57 448.344 1334.57 433.151C1335.25 429.506 1338.48 428.164 1341.61 427.19C1346.77 425.371 1352.09 423.36 1357.01 421.124C1365.82 416.551 1377.15 412.266 1379.06 402.373C1383.15 379.274 1373.68 356.691 1356.42 341.612C1356.45 341.63 1356.34 341.543 1356.6 341.728C1333.21 324.305 1359.54 288.642 1383.07 305.846Z" fill="#F99370"/>
<path d="M1399.45 434.646C1385.54 440.858 1372.36 442.765 1362.23 443.132C1362.23 443.132 1364.57 428.016 1353.65 421.788C1415.18 375.022 1327.29 355.34 1344.17 286.622C1410.15 287.799 1478.28 387.81 1399.45 434.646Z" fill="#3A72AA"/>
<path d="M1308.45 442.699C1308.45 442.699 1313.73 424.239 1345.25 426.366L1351.85 442.699H1308.45Z" fill="#F99370"/>
<path d="M1369.54 442.621C1365.03 443.123 1362.22 443.132 1362.22 443.132C1362.22 443.132 1364.56 428.016 1353.64 421.788C1353.64 421.788 1356.33 420.041 1359.84 416.94C1359.84 416.94 1371.81 425.73 1369.54 442.621Z" fill="#23659B"/>
<path d="M1359.29 419.523C1358.49 419.541 1358.07 418.465 1358.7 417.948C1386.03 393.599 1372.64 367.825 1356.39 351.13C1355.59 350.311 1356.92 349.032 1357.7 349.911C1374.99 367.19 1388.1 395.742 1359.29 419.523Z" fill="#23659B"/>
<path d="M1368.95 442.715C1363.84 439.739 1383.3 441.223 1398.1 434.227C1398.56 434.04 1399.08 434.257 1399.27 434.715C1399.46 435.173 1399.24 435.697 1398.78 435.885C1383.49 442.157 1369.15 442.711 1368.95 442.715Z" fill="#23659B"/>
<path d="M1350.27 314.274C1349.64 318.998 1345.12 320.47 1343.99 320.22C1328.12 313.438 1339.41 334.857 1332.88 337.038C1327.39 338.872 1326.74 331.711 1321.95 331.319C1315 330.75 1313.59 334.535 1311.14 332.234C1307.75 329.031 1315.97 323.438 1314.92 317.707C1314.18 313.683 1306.18 317.728 1306.28 309.444C1306.41 301.308 1315.72 289.118 1316.02 288.742C1316.02 288.733 1316.02 288.733 1316.02 288.733C1321.88 285.463 1334.64 286.951 1340.43 287.022C1340.52 286.44 1344.17 286.624 1344.17 286.624C1344.17 286.624 1346.72 286.06 1349.18 286.992C1350.39 293.605 1351.53 307.181 1350.27 314.274Z" fill="#F4D4BE"/>
<path d="M1322.48 279.147L1321.95 287.019C1321.95 287.019 1321.21 294.591 1321.21 308.668C1321.21 328.458 1326.1 326.154 1332.88 312.329C1336.6 304.733 1344.17 287.243 1344.17 287.243C1344.17 287.243 1344.13 282.066 1344.55 278.892L1322.48 279.147Z" fill="#F99370"/>
<path d="M1348.86 256.613C1348.77 256.987 1348.66 257.365 1348.54 257.728C1348.06 257.343 1345.36 270.442 1344.38 280.429C1334.91 285.975 1323.96 285.238 1322.08 284.659C1322.58 269.883 1323.83 247.772 1335.2 243.653C1342.83 241.23 1350.92 248.753 1348.86 256.613Z" fill="#E57D61"/>
<path d="M1320.17 207.937C1291.58 204.507 1287.04 249.639 1306.47 266.244L1320.17 207.937Z" fill="#C92828"/>
<path d="M1353.88 239.738C1355.26 249.593 1355.35 261.152 1349.84 269.647L1349.83 269.651C1334.79 294.253 1285.01 278.393 1298.65 249.22C1300.66 245.497 1301.79 240.97 1301.93 237.131C1302.38 196.844 1349.9 205.299 1353.88 239.738Z" fill="#F99370"/>
<path d="M1316.26 244.985C1314.9 243.618 1317.08 241.511 1318.4 242.917C1319.76 244.284 1317.58 246.392 1316.26 244.985Z" fill="#C16256"/>
<path d="M1303.69 246.657C1302.33 245.29 1304.51 243.182 1305.83 244.589C1307.19 245.956 1305.01 248.064 1303.69 246.657Z" fill="#C16256"/>
<path d="M1311.18 257.829C1308.66 258.23 1305.02 257.577 1307.4 254.562C1309.63 252.282 1309.89 246.107 1309.89 246.045C1309.91 245.322 1311.06 245.354 1311.02 246.087C1311.01 246.358 1310.74 252.759 1308.2 255.349C1307.91 255.643 1307.61 256.047 1307.82 256.297C1308.42 257.005 1311.25 257.122 1312.88 255.99C1313.13 255.813 1313.49 255.875 1313.66 256.13C1314.08 257.307 1312.05 257.56 1311.18 257.829Z" fill="#C16256"/>
<path d="M1353.88 239.738C1355.25 249.593 1355.34 261.152 1349.84 269.647L1349.83 269.651C1352.37 263.282 1351.41 251.076 1351.41 251.076L1347.91 246.596C1312.07 246.116 1306.8 219.073 1306.8 219.073C1322.55 197.913 1352.01 217.022 1353.88 239.738Z" fill="#E57D61"/>
<path d="M1309.54 215.677C1309.54 215.677 1314.87 242.303 1347.31 243.915L1356 234.91C1360.04 211.731 1332.49 187.999 1309.54 215.677Z" fill="#C92828"/>
<path d="M1361.3 242.645C1362.45 253.918 1348.2 255.211 1347.31 243.914C1346.16 232.641 1360.4 231.349 1361.3 242.645Z" fill="#F99370"/>
<path d="M1357.95 239.727C1356.5 235.258 1347.9 240.03 1351.56 240.199C1351.57 240.001 1355.38 237.719 1356.57 239.7C1352.81 241.472 1351.56 248.472 1353.73 246.209C1353.74 246.167 1354.19 242.18 1357.14 240.674C1358.61 250.855 1359.94 243.792 1357.95 239.727Z" fill="#C16256"/>
<path d="M1356.94 249.378C1357.44 250.937 1354.98 251.695 1354.52 250.122C1354.02 248.562 1356.48 247.804 1356.94 249.378Z" fill="#F4D4BE"/>
<path d="M1321.21 342.216C1321.26 345.481 1316.13 345.481 1316.18 342.216C1316.13 338.951 1321.26 338.951 1321.21 342.216Z" fill="#23659B"/>
<path d="M1316.27 359.938C1316.32 363.203 1311.19 363.203 1311.23 359.938C1311.19 356.673 1316.32 356.673 1316.27 359.938Z" fill="#23659B"/>
<path d="M1316.27 375.886C1316.32 379.151 1311.19 379.151 1311.23 375.886C1311.19 372.621 1316.32 372.621 1316.27 375.886Z" fill="#23659B"/>
<path d="M1229.77 648.607C1230.24 656.519 1230.66 661.295 1230.66 661.295C1202.19 670.462 1186.88 661.295 1186.88 661.295C1186.88 661.295 1186.09 657.325 1184.86 650.48C1185.2 650.649 1203.1 659.449 1229.77 648.607Z" fill="#23659B"/>
<path d="M1293.09 661.295C1264.62 670.462 1249.32 661.295 1249.32 661.295C1249.32 661.295 1248.28 657.63 1246.66 651.304C1246.66 651.304 1262.44 659.467 1291.6 651.304C1292.46 657.558 1293.09 661.295 1293.09 661.295Z" fill="#23659B"/>
<path d="M1310.17 442.513C1304.57 442.685 1324.96 428.697 1331.04 432.118C1331.09 432.612 1330.74 433.052 1330.24 433.101C1318.77 434.3 1311.14 442.478 1310.17 442.513Z" fill="#E57D61"/>
<path d="M1318.81 442.829C1314.56 441.015 1327.76 437.906 1334.3 436.136C1334.78 436.034 1335.26 436.347 1335.36 436.832C1335.46 437.317 1335.15 437.79 1334.66 437.891C1327.7 439.326 1319.51 442.754 1318.81 442.829Z" fill="#E57D61"/>
<path d="M1320.93 240.418C1320.79 240.418 1320.65 240.374 1320.54 240.283C1316.96 237.483 1313.7 238.393 1313.57 238.434C1313.23 238.534 1312.88 238.341 1312.78 238.004C1312.68 237.668 1312.87 237.314 1313.2 237.212C1313.36 237.162 1317.2 236.053 1321.32 239.278C1321.6 239.495 1321.65 239.896 1321.43 240.173C1321.31 240.334 1321.12 240.418 1320.93 240.418Z" fill="#C16256"/>
<path d="M1302.21 241.956C1302.08 241.956 1301.96 241.921 1301.85 241.847C1301.56 241.65 1301.48 241.253 1301.68 240.962C1301.76 240.838 1303.75 237.94 1307.06 238.068C1307.41 238.082 1307.69 238.378 1307.67 238.73C1307.66 239.082 1307.37 239.363 1307.01 239.342C1304.41 239.258 1302.75 241.651 1302.74 241.675C1302.61 241.858 1302.41 241.956 1302.21 241.956Z" fill="#C16256"/>
<path d="M1315.98 263.851C1315.15 263.851 1314.42 263.555 1313.95 262.955C1312.96 261.675 1313.62 259.568 1315.44 258.159C1317.26 256.75 1319.47 256.647 1320.46 257.927C1321.45 259.207 1320.79 261.314 1318.97 262.723C1318 263.471 1316.92 263.851 1315.98 263.851ZM1318.42 258.313C1317.79 258.313 1316.99 258.576 1316.22 259.167C1314.9 260.189 1314.5 261.573 1314.96 262.175C1315.43 262.777 1316.87 262.736 1318.19 261.714C1319.51 260.692 1319.91 259.309 1319.45 258.706C1319.25 258.453 1318.88 258.313 1318.42 258.313Z" fill="#C16256"/>
<path d="M2336.6 1264.55C2335.54 1265.1 2349.66 1264.99 2348.75 1266.04C2319.02 1291.76 2274.66 1299.9 2241.74 1274.85V1274.82C2231.94 1267.65 2222.04 1256.12 2215.16 1244.06L2223.25 1230.95C2287.43 1270.54 2312.83 1202.98 2365.03 1197.72L2354.58 1212.97L2336.6 1264.55Z" fill="#1D3F70"/>
<path d="M2407.86 1717.12L2408.84 1716.61C2408.84 1717.29 2409.69 1719.67 2410.37 1719.67L2439.33 1720.27C2440.02 1720.27 2440.44 1718.98 2440.44 1718.29L2442.91 1717.59C2442.91 1713.25 2442.55 1711.68 2440.64 1708.32C2433.59 1698.96 2442 1657.11 2441.76 1646.18C2443.49 1643.19 2411.26 1645.54 2410.81 1644.83C2410.09 1644.83 2409.52 1645.45 2409.57 1646.17L2413.37 1693.99C2415.07 1703.07 2408.1 1708.56 2407.86 1717.12Z" fill="#F99370"/>
<path d="M2282.33 1721.29H2340.01C2345.04 1721.08 2345.01 1715.95 2344.08 1711.96C2340.9 1697.61 2346.52 1664.65 2347.56 1649.88C2347.83 1647.18 2345.71 1644.83 2343 1644.83H2317.54C2314.78 1644.83 2312.64 1647.25 2312.99 1649.99L2317.62 1686.91C2320.13 1702.94 2301 1706 2290.09 1707.77C2282.91 1708.29 2270.9 1718.1 2282.33 1721.29Z" fill="#F99370"/>
<path d="M2346.27 1715.3C2346.11 1718.13 2344.71 1721.36 2341.44 1721.29H2281.6C2267.49 1716.05 2288.64 1697.33 2316.26 1697.44C2335.9 1702.83 2346.94 1687.52 2346.27 1715.3Z" fill="#3A72AA"/>
<path d="M2438.31 1721.29H2412.74C2400.28 1719.58 2409.26 1695.67 2425.52 1697.4C2441.84 1695.34 2450.77 1719.61 2438.31 1721.29Z" fill="#3A72AA"/>
<path d="M2277.41 1715.3H2346.27C2346.01 1717.4 2345.43 1719.44 2344.38 1721.29H2281.6C2278.51 1721.29 2276.31 1718.19 2277.41 1715.3Z" fill="#23659B"/>
<path d="M2438.32 1721.29H2412.74C2409.49 1721.29 2406.87 1718.55 2407.07 1715.3H2443.99C2444.19 1718.55 2441.57 1721.29 2438.32 1721.29Z" fill="#23659B"/>
<path d="M2357.01 1131.9C2357.01 1131.9 2356.71 1113.2 2373.61 1109.88L2382.47 1119.07L2357.01 1131.9Z" fill="#1D3F70"/>
<path d="M2445.79 1688.65C2445.79 1688.65 2418.52 1695.28 2404.46 1688.16C2397.15 1642.29 2376.85 1514.59 2369.78 1427.07C2369.5 1432.18 2354.65 1637.98 2351.82 1688.16C2342.12 1691.4 2322.61 1695.32 2311.7 1687.46C2306.79 1634.63 2291.05 1460.7 2314.76 1318.65C2314.76 1318.65 2379.76 1325.88 2430.53 1310.54C2444.5 1355.6 2448.2 1634.58 2445.79 1688.65Z" fill="#CE4ABF"/>
<path d="M2445.5 1678.26C2437.7 1680 2430.49 1680.61 2424.28 1680.65C2421.44 1525.53 2398.48 1379.28 2395 1378.72C2392.39 1380.68 2414.93 1525.25 2424.18 1680.65C2411.32 1680.7 2402.87 1678.26 2402.87 1678.26C2403.88 1684.61 2404.46 1688.16 2404.46 1688.16C2418.52 1695.28 2445.79 1688.65 2445.79 1688.65C2445.7 1688.14 2445.6 1684.45 2445.5 1678.26Z" fill="#A523A2"/>
<path d="M2351.82 1688.16C2351.6 1683.75 2369.78 1427.07 2369.78 1427.07C2369.78 1427.07 2361.19 1431.66 2359.15 1458.91C2357.37 1482.61 2346.78 1640.08 2344.05 1680.8C2335.57 1682.69 2327.93 1682.34 2322.12 1681.39C2315.64 1530.28 2330.81 1400.66 2328.52 1399.11C2324.53 1399.43 2309.26 1530.2 2322.05 1681.38C2315.11 1680.24 2310.78 1678.26 2310.78 1678.26C2311.35 1684.22 2311.7 1687.46 2311.7 1687.46C2320.64 1693.9 2335.34 1692.43 2345.7 1689.91C2348.32 1689.3 2350.33 1688.65 2351.26 1688.34C2351.45 1688.28 2351.64 1688.22 2351.82 1688.16Z" fill="#A523A2"/>
<path d="M2364.55 1197.2C2363.13 1184.84 2365.07 1166.99 2366.79 1159.65C2369.9 1145.17 2392.86 1150.77 2389.05 1165.01C2388.31 1164.54 2385.94 1190.78 2387.57 1198.07C2409.12 1204.53 2344.31 1225.79 2364.55 1197.2Z" fill="#F99370"/>
<path d="M2389.27 1163.81C2389.22 1164.21 2389.14 1164.61 2389.05 1165C2388.52 1164.65 2387.02 1179.13 2387.01 1189.64C2377.13 1194.13 2366.13 1192.15 2364.11 1191.74C2363.89 1178.43 2365.12 1166.3 2367.07 1158.69C2371.08 1145.8 2391.31 1150.5 2389.27 1163.81Z" fill="#E57D61"/>
<path d="M2404.58 1158.41C2401.31 1168.3 2396.05 1179.2 2386.94 1184.63L2386.93 1184.63C2383.23 1186.81 2379.04 1187.87 2374.71 1188.03C2350.4 1191.31 2326.44 1158.21 2348.33 1141.73C2351.93 1139.16 2355.09 1135.44 2357.01 1131.9C2376.5 1094.31 2416.48 1123.81 2404.58 1158.41Z" fill="#F99370"/>
<path d="M2353.83 1162.32L2368.24 1157.65C2368.32 1165.81 2358.69 1169.74 2353.83 1162.32Z" fill="#F9F8F3"/>
<path d="M2322.37 1249.52L2312.36 1286.25C2290.92 1292.84 2268.06 1291.34 2247.89 1278.97C2270.06 1291.49 2300.53 1284.43 2305.33 1277.07C2310.39 1269.28 2321.67 1250.65 2322.37 1249.52Z" fill="#103663"/>
<path d="M2439.98 1371.87C2437.66 1374.69 2435.18 1377.52 2432.56 1380.36C2432.56 1380.36 2419.79 1382.77 2409.79 1369.46C2450.58 1283 2371.83 1274.93 2387.57 1198.06C2440.18 1204.27 2513.37 1282.79 2439.98 1371.87Z" fill="#1D3F70"/>
<path d="M2366.82 1145.91C2366.18 1144 2369.2 1143.03 2369.79 1144.96C2370.44 1146.87 2367.41 1147.84 2366.82 1145.91Z" fill="#C16256"/>
<path d="M2354.25 1141.66C2353.6 1139.74 2356.62 1138.77 2357.21 1140.71C2357.86 1142.62 2354.84 1143.59 2354.25 1141.66Z" fill="#C16256"/>
<path d="M2404.59 1158.41C2401.32 1168.3 2396.05 1179.2 2386.94 1184.63L2386.93 1184.63C2386.18 1185.07 2385.4 1185.47 2384.6 1185.83C2391.68 1180.75 2397.3 1168.32 2397.3 1168.32L2397.64 1157.08C2389.39 1145.51 2395.44 1134.96 2395.44 1134.96C2378.21 1136.93 2374.29 1125.87 2374.29 1125.87C2368.97 1125.71 2363.91 1122.2 2363.91 1122.2C2387.61 1098.44 2414.86 1132.38 2404.59 1158.41Z" fill="#E57D61"/>
<path d="M2353.83 1162.91C2354.15 1162.54 2369.54 1158.6 2368.8 1157.47C2369.1 1156.03 2353.94 1161.96 2353.65 1161.76C2353.02 1161.94 2353.18 1162.93 2353.83 1162.91Z" fill="#C16256"/>
<path d="M2358 1155.9C2359.01 1156.22 2359.87 1154.8 2358.56 1154.68C2356.49 1155.07 2351.96 1152.94 2354.46 1151.91C2358.04 1150.69 2363.63 1142.49 2360.36 1143.96C2360.33 1144.02 2357.23 1149.7 2354.07 1150.8C2349.75 1152.95 2355 1155.91 2358 1155.9Z" fill="#C16256"/>
<path d="M2439.99 1371.87C2437.67 1374.69 2435.19 1377.52 2432.57 1380.36C2432.57 1380.36 2419.56 1382.19 2409.56 1368.88C2411.03 1365.31 2412.66 1362.99 2413.91 1359.45C2413.91 1359.45 2421.63 1368.09 2439.99 1371.87Z" fill="#103663"/>
<path d="M2433.48 1382.07C2436.24 1382.9 2439.13 1379.64 2435.39 1378.69C2415.15 1379.58 2409.76 1366.22 2409.54 1365.65C2400.77 1360.71 2411.55 1383.29 2433.48 1382.07Z" fill="#A523A2"/>
<path d="M2305.31 1379.71C2305.31 1379.71 2309.28 1396.74 2341.05 1405.14C2350.15 1407.55 2355.41 1406.36 2356.75 1400.05C2357.42 1396.88 2359.15 1391.37 2362.33 1389.33C2362.33 1389.33 2369.44 1392.4 2372.12 1396.75C2378 1406.3 2386.86 1397.62 2391.17 1387.63C2396.51 1375.27 2410.03 1364.8 2412.98 1354.43L2305.31 1379.71Z" fill="#F4D4BE"/>
<path d="M2434.78 1358.66C2433.75 1360.49 2433.13 1360.2 2432.07 1359.14C2403.53 1337.82 2393.31 1384.4 2362.56 1385.23C2331.25 1388.33 2313.84 1390.1 2305.31 1379.71C2290.42 1356.64 2314.1 1253.49 2333.25 1228.51C2341.64 1215.53 2356.53 1203.95 2364.54 1197.22C2364.37 1197.89 2360.11 1215.63 2387.58 1198.06C2388.96 1198.65 2397.67 1207.14 2397.12 1211.69C2398.51 1232.57 2448.06 1335.2 2434.78 1358.66Z" fill="#1D3F70"/>
<path d="M2355.52 1105.25C2355.52 1105.25 2363.57 1103.03 2371.82 1106.28C2372.77 1103.15 2374.7 1100.26 2377.83 1097.97C2379.18 1101.77 2381.09 1105.43 2383.27 1108.83C2384.02 1101.68 2388.43 1095.88 2388.43 1095.88C2389.6 1102.73 2399.08 1107.66 2403.54 1115.08L2403.79 1114.73C2403.79 1114.73 2428.81 1123.74 2410.77 1145.92C2410.03 1154.13 2406.02 1162.43 2406.02 1162.43C2392.76 1150.32 2395.62 1135.76 2401.65 1131.98C2390.84 1135.81 2381.21 1131.27 2375.78 1124.1C2367.74 1122.76 2357.92 1118.39 2355.52 1105.25Z" fill="#1D3F70"/>
<path d="M2418.26 1365.22L2412 1363.92C2437.02 1307.6 2407.6 1283.78 2392.03 1252.05C2428.12 1293.82 2433.58 1316.71 2418.26 1365.22Z" fill="#103663"/>
<path d="M2410.21 1164.58C2406.07 1175.7 2392.09 1170.31 2396.48 1159.29C2400.62 1148.17 2414.6 1153.55 2410.21 1164.58Z" fill="#F99370"/>
<path d="M2406.26 1166.38C2408.81 1163.71 2408.81 1159.22 2407.64 1157.97C2405.52 1155.79 2401.5 1156.05 2401.49 1157.31C2402.03 1158.59 2404.76 1156.5 2406.72 1158.7C2408.83 1160.35 2404.61 1165.7 2406.26 1166.38Z" fill="#C16256"/>
<path d="M2400.96 1164.69C2401.86 1164.63 2403.32 1160.55 2407.77 1160.81C2408.1 1160.85 2408.39 1160.61 2408.42 1160.28C2405.51 1157.34 2398.33 1164.75 2400.96 1164.69Z" fill="#C16256"/>
<path d="M2396.03 1199.57C2396.18 1210.05 2369.29 1219.3 2367.77 1219.31L2364.55 1209.78C2360.41 1210.8 2356.77 1216.59 2356.77 1216.59C2344.84 1205.23 2356.06 1195.33 2364.55 1197.2C2364.55 1197.2 2364.55 1197.21 2364.54 1197.22C2364.37 1197.89 2362.5 1213.44 2387.48 1197.52C2390.69 1196.03 2396.03 1199.57 2396.03 1199.57Z" fill="#F4D4BE"/>
<path d="M2230.34 1234.67C2230.31 1243.04 2218.91 1250.1 2218.91 1250.1C2217.64 1248.17 2216.36 1246.13 2215.16 1244.06L2223.25 1230.96C2225.68 1232.3 2228.05 1233.54 2230.34 1234.67Z" fill="#103663"/>
<path d="M2211.38 1207.39C2208.25 1209.4 2213.38 1215.6 2212.99 1218.97C2207.8 1216.6 2203.26 1212.72 2203.22 1212.73C2198.77 1207.24 2194.63 1201.53 2190.75 1195.63C2181.17 1191.24 2196.36 1212.93 2197.51 1215.6C2197.48 1215.63 2197.46 1215.65 2197.43 1215.68C2191.68 1211.03 2186.17 1206.06 2181.12 1200.66C2170.34 1198.41 2192.07 1218.24 2194.04 1220.6C2194.04 1220.62 2194.03 1220.64 2194.02 1220.65C2187.87 1217.2 2182.14 1212.99 2176.93 1208.23C2165.87 1206.93 2189.49 1225.37 2192.11 1227.03C2192.11 1227.05 2192.1 1227.08 2192.1 1227.11C2187.42 1226.49 2177.79 1217.83 2174.7 1219.93C2171.77 1224.67 2203.38 1241.7 2214.46 1243.84C2218.45 1244.93 2224.2 1234.91 2223.23 1230.97C2222.31 1227.27 2219.76 1222.75 2218.89 1221.09C2217.51 1217.23 2215.96 1207.7 2211.38 1207.39Z" fill="#F99370"/>
<path d="M2241.7 1274.75C2242.02 1275 2242.35 1275.25 2242.68 1275.55C2242.35 1275.29 2242.06 1275.07 2241.73 1274.85V1274.82C2241.7 1274.78 2241.7 1274.75 2241.7 1274.75Z" fill="#395B96"/>
<path d="M2375.25 1145.51C2374.95 1145.51 2374.67 1145.31 2374.6 1145C2374.55 1144.83 2373.41 1140.72 2367.14 1138.58C2366.78 1138.46 2366.6 1138.07 2366.72 1137.72C2366.84 1137.37 2367.22 1137.18 2367.57 1137.3C2374.59 1139.69 2375.86 1144.47 2375.91 1144.67C2376 1145.04 2375.78 1145.4 2375.41 1145.49C2375.36 1145.51 2375.3 1145.51 2375.25 1145.51Z" fill="#C16256"/>
<path d="M2354.93 1136.77C2354.74 1136.77 2354.55 1136.69 2354.42 1136.54C2354.18 1136.25 2354.21 1135.83 2354.5 1135.58C2357.87 1132.72 2362.48 1135.01 2362.68 1135.11C2363.01 1135.28 2363.14 1135.69 2362.97 1136.02C2362.8 1136.35 2362.4 1136.49 2362.06 1136.32C2362.02 1136.3 2358.05 1134.33 2355.37 1136.61C2355.25 1136.72 2355.09 1136.77 2354.93 1136.77Z" fill="#C16256"/>
</g>
<defs>
<clipPath id="clip0_5494_25660">
<rect width="2800" height="2000" fill="white"/>
</clipPath>
</defs>
</svg>
